<mxfile host="app.diagrams.net" modified="2022-02-15T02:58:00.165Z" agent="5.0 (Macintosh; Intel Mac OS X 10_15_7) AppleWebKit/605.1.15 (KHTML, like Gecko) Version/15.3 Safari/605.1.15" etag="z0KrdOY33Ibk1A-81IHj" version="16.5.6" type="github">
  <diagram id="C5RBs43oDa-KdzZeNtuy" name="Page-1">
    <mxGraphModel dx="1186" dy="1638" grid="1" gridSize="10" guides="1" tooltips="1" connect="1" arrows="1" fold="1" page="1" pageScale="1" pageWidth="827" pageHeight="1169" math="0" shadow="0">
      <root>
        <mxCell id="WIyWlLk6GJQsqaUBKTNV-0" />
        <mxCell id="WIyWlLk6GJQsqaUBKTNV-1" parent="WIyWlLk6GJQsqaUBKTNV-0" />
        <mxCell id="DblRdDGWBC0uOEQ8MNWj-6" style="edgeStyle=orthogonalEdgeStyle;rounded=0;orthogonalLoop=1;jettySize=auto;html=1;entryX=0.5;entryY=0;entryDx=0;entryDy=0;" edge="1" parent="WIyWlLk6GJQsqaUBKTNV-1" source="DblRdDGWBC0uOEQ8MNWj-0" target="DblRdDGWBC0uOEQ8MNWj-3">
          <mxGeometry relative="1" as="geometry" />
        </mxCell>
        <mxCell id="DblRdDGWBC0uOEQ8MNWj-0" value="START" style="strokeWidth=2;html=1;shape=mxgraph.flowchart.start_1;whiteSpace=wrap;" vertex="1" parent="WIyWlLk6GJQsqaUBKTNV-1">
          <mxGeometry x="364" y="120" width="100" height="60" as="geometry" />
        </mxCell>
        <mxCell id="DblRdDGWBC0uOEQ8MNWj-1" value="STOP" style="strokeWidth=2;html=1;shape=mxgraph.flowchart.terminator;whiteSpace=wrap;" vertex="1" parent="WIyWlLk6GJQsqaUBKTNV-1">
          <mxGeometry x="364" y="800" width="100" height="60" as="geometry" />
        </mxCell>
        <mxCell id="DblRdDGWBC0uOEQ8MNWj-5" style="edgeStyle=orthogonalEdgeStyle;rounded=0;orthogonalLoop=1;jettySize=auto;html=1;entryX=0.5;entryY=0;entryDx=0;entryDy=0;" edge="1" parent="WIyWlLk6GJQsqaUBKTNV-1" source="DblRdDGWBC0uOEQ8MNWj-3" target="DblRdDGWBC0uOEQ8MNWj-4">
          <mxGeometry relative="1" as="geometry" />
        </mxCell>
        <mxCell id="DblRdDGWBC0uOEQ8MNWj-3" value="OUTPUT&lt;br&gt;&quot;Please enter&lt;br&gt;two numbers&quot;" style="shape=parallelogram;perimeter=parallelogramPerimeter;whiteSpace=wrap;html=1;fixedSize=1;" vertex="1" parent="WIyWlLk6GJQsqaUBKTNV-1">
          <mxGeometry x="354" y="230" width="120" height="60" as="geometry" />
        </mxCell>
        <mxCell id="DblRdDGWBC0uOEQ8MNWj-4" value="INPUT&lt;br&gt;X, Y" style="shape=parallelogram;perimeter=parallelogramPerimeter;whiteSpace=wrap;html=1;fixedSize=1;" vertex="1" parent="WIyWlLk6GJQsqaUBKTNV-1">
          <mxGeometry x="354" y="340" width="120" height="60" as="geometry" />
        </mxCell>
        <mxCell id="DblRdDGWBC0uOEQ8MNWj-18" style="edgeStyle=orthogonalEdgeStyle;rounded=0;orthogonalLoop=1;jettySize=auto;html=1;entryX=0.5;entryY=0;entryDx=0;entryDy=0;entryPerimeter=0;" edge="1" parent="WIyWlLk6GJQsqaUBKTNV-1" source="DblRdDGWBC0uOEQ8MNWj-9" target="DblRdDGWBC0uOEQ8MNWj-1">
          <mxGeometry relative="1" as="geometry" />
        </mxCell>
        <mxCell id="DblRdDGWBC0uOEQ8MNWj-9" value="OUTPUT&lt;br&gt;&quot;The sum is: &quot;,&lt;br&gt;Y" style="shape=parallelogram;perimeter=parallelogramPerimeter;whiteSpace=wrap;html=1;fixedSize=1;" vertex="1" parent="WIyWlLk6GJQsqaUBKTNV-1">
          <mxGeometry x="354" y="690" width="120" height="60" as="geometry" />
        </mxCell>
        <mxCell id="DblRdDGWBC0uOEQ8MNWj-16" style="edgeStyle=orthogonalEdgeStyle;rounded=0;orthogonalLoop=1;jettySize=auto;html=1;entryX=0;entryY=0.5;entryDx=0;entryDy=0;entryPerimeter=0;" edge="1" parent="WIyWlLk6GJQsqaUBKTNV-1" source="DblRdDGWBC0uOEQ8MNWj-11" target="DblRdDGWBC0uOEQ8MNWj-15">
          <mxGeometry relative="1" as="geometry" />
        </mxCell>
        <mxCell id="DblRdDGWBC0uOEQ8MNWj-23" style="edgeStyle=orthogonalEdgeStyle;rounded=0;orthogonalLoop=1;jettySize=auto;html=1;entryX=0.5;entryY=0;entryDx=0;entryDy=0;" edge="1" parent="WIyWlLk6GJQsqaUBKTNV-1" source="DblRdDGWBC0uOEQ8MNWj-11" target="DblRdDGWBC0uOEQ8MNWj-9">
          <mxGeometry relative="1" as="geometry" />
        </mxCell>
        <mxCell id="DblRdDGWBC0uOEQ8MNWj-11" value="if X == 0" style="strokeWidth=2;html=1;shape=mxgraph.flowchart.decision;whiteSpace=wrap;" vertex="1" parent="WIyWlLk6GJQsqaUBKTNV-1">
          <mxGeometry x="364" y="470" width="100" height="100" as="geometry" />
        </mxCell>
        <mxCell id="DblRdDGWBC0uOEQ8MNWj-27" style="edgeStyle=orthogonalEdgeStyle;rounded=0;orthogonalLoop=1;jettySize=auto;html=1;entryX=0.5;entryY=0;entryDx=0;entryDy=0;" edge="1" parent="WIyWlLk6GJQsqaUBKTNV-1" source="DblRdDGWBC0uOEQ8MNWj-15" target="DblRdDGWBC0uOEQ8MNWj-26">
          <mxGeometry relative="1" as="geometry" />
        </mxCell>
        <mxCell id="DblRdDGWBC0uOEQ8MNWj-30" style="edgeStyle=orthogonalEdgeStyle;rounded=0;orthogonalLoop=1;jettySize=auto;html=1;entryX=0;entryY=0.5;entryDx=0;entryDy=0;" edge="1" parent="WIyWlLk6GJQsqaUBKTNV-1" source="DblRdDGWBC0uOEQ8MNWj-15" target="DblRdDGWBC0uOEQ8MNWj-29">
          <mxGeometry relative="1" as="geometry" />
        </mxCell>
        <mxCell id="DblRdDGWBC0uOEQ8MNWj-15" value="if X &amp;gt; 0" style="strokeWidth=2;html=1;shape=mxgraph.flowchart.decision;whiteSpace=wrap;" vertex="1" parent="WIyWlLk6GJQsqaUBKTNV-1">
          <mxGeometry x="530" y="470" width="100" height="100" as="geometry" />
        </mxCell>
        <mxCell id="DblRdDGWBC0uOEQ8MNWj-19" value="" style="endArrow=classic;html=1;rounded=0;exitX=0.5;exitY=1;exitDx=0;exitDy=0;entryX=0.5;entryY=0;entryDx=0;entryDy=0;entryPerimeter=0;" edge="1" parent="WIyWlLk6GJQsqaUBKTNV-1" source="DblRdDGWBC0uOEQ8MNWj-4" target="DblRdDGWBC0uOEQ8MNWj-11">
          <mxGeometry relative="1" as="geometry">
            <mxPoint x="320" y="460" as="sourcePoint" />
            <mxPoint x="420" y="460" as="targetPoint" />
          </mxGeometry>
        </mxCell>
        <mxCell id="DblRdDGWBC0uOEQ8MNWj-20" value="" style="shape=message;html=1;outlineConnect=0;" vertex="1" parent="DblRdDGWBC0uOEQ8MNWj-19">
          <mxGeometry width="20" height="14" relative="1" as="geometry">
            <mxPoint x="-10" y="-7" as="offset" />
          </mxGeometry>
        </mxCell>
        <mxCell id="DblRdDGWBC0uOEQ8MNWj-24" value="true" style="text;html=1;strokeColor=none;fillColor=none;align=center;verticalAlign=middle;whiteSpace=wrap;rounded=0;" vertex="1" parent="WIyWlLk6GJQsqaUBKTNV-1">
          <mxGeometry x="404" y="570" width="60" height="30" as="geometry" />
        </mxCell>
        <mxCell id="DblRdDGWBC0uOEQ8MNWj-25" value="false" style="text;html=1;strokeColor=none;fillColor=none;align=center;verticalAlign=middle;whiteSpace=wrap;rounded=0;" vertex="1" parent="WIyWlLk6GJQsqaUBKTNV-1">
          <mxGeometry x="450" y="490" width="60" height="30" as="geometry" />
        </mxCell>
        <mxCell id="DblRdDGWBC0uOEQ8MNWj-28" style="edgeStyle=orthogonalEdgeStyle;rounded=0;orthogonalLoop=1;jettySize=auto;html=1;entryX=0;entryY=0.5;entryDx=0;entryDy=0;" edge="1" parent="WIyWlLk6GJQsqaUBKTNV-1" source="DblRdDGWBC0uOEQ8MNWj-26" target="DblRdDGWBC0uOEQ8MNWj-20">
          <mxGeometry relative="1" as="geometry">
            <Array as="points">
              <mxPoint x="320" y="650" />
              <mxPoint x="320" y="435" />
            </Array>
          </mxGeometry>
        </mxCell>
        <mxCell id="DblRdDGWBC0uOEQ8MNWj-26" value="X = X - 1&lt;br&gt;Y = Y + 1" style="rounded=0;whiteSpace=wrap;html=1;" vertex="1" parent="WIyWlLk6GJQsqaUBKTNV-1">
          <mxGeometry x="520" y="620" width="120" height="60" as="geometry" />
        </mxCell>
        <mxCell id="DblRdDGWBC0uOEQ8MNWj-32" style="edgeStyle=orthogonalEdgeStyle;rounded=0;orthogonalLoop=1;jettySize=auto;html=1;entryX=1;entryY=0.5;entryDx=0;entryDy=0;" edge="1" parent="WIyWlLk6GJQsqaUBKTNV-1" source="DblRdDGWBC0uOEQ8MNWj-29" target="DblRdDGWBC0uOEQ8MNWj-20">
          <mxGeometry relative="1" as="geometry">
            <Array as="points">
              <mxPoint x="750" y="435" />
            </Array>
          </mxGeometry>
        </mxCell>
        <mxCell id="DblRdDGWBC0uOEQ8MNWj-29" value="X = X + 1&lt;br&gt;Y = Y - 1" style="rounded=0;whiteSpace=wrap;html=1;" vertex="1" parent="WIyWlLk6GJQsqaUBKTNV-1">
          <mxGeometry x="690" y="490" width="120" height="60" as="geometry" />
        </mxCell>
        <mxCell id="DblRdDGWBC0uOEQ8MNWj-33" value="true" style="text;html=1;strokeColor=none;fillColor=none;align=center;verticalAlign=middle;whiteSpace=wrap;rounded=0;" vertex="1" parent="WIyWlLk6GJQsqaUBKTNV-1">
          <mxGeometry x="570" y="570" width="60" height="30" as="geometry" />
        </mxCell>
        <mxCell id="DblRdDGWBC0uOEQ8MNWj-34" value="false" style="text;html=1;strokeColor=none;fillColor=none;align=center;verticalAlign=middle;whiteSpace=wrap;rounded=0;" vertex="1" parent="WIyWlLk6GJQsqaUBKTNV-1">
          <mxGeometry x="610" y="490" width="60" height="30" as="geometry" />
        </mxCell>
      </root>
    </mxGraphModel>
  </diagram>
</mxfile>
